<svg xmlns="http://www.w3.org/2000/svg" viewBox="0 0 920 420" width="920" height="420">

  <!-- Mascot -->
  <g>
    <!-- Stack of photos on the right side -->
    <!-- Bottom photo -->
    <rect x="330" y="260" width="100" height="78" rx="3" fill="white" stroke="#CCCCCC" stroke-width="2" transform="rotate(8 380 300)"/>
    <rect x="338" y="267" width="84" height="55" rx="1" fill="#FFE4B5" transform="rotate(8 380 300)"/>
    <circle cx="400" cy="278" r="9" fill="#FF6347" transform="rotate(8 380 300)"/>
    <polygon points="345,318 370,285 395,318" fill="#8FBC8F" transform="rotate(8 380 300)"/>

    <!-- Middle photo -->
    <rect x="325" y="255" width="100" height="78" rx="3" fill="white" stroke="#CCCCCC" stroke-width="2" transform="rotate(-3 375 295)"/>
    <rect x="333" y="262" width="84" height="55" rx="1" fill="#B0E0E6" transform="rotate(-3 375 295)"/>
    <polygon points="340,313 365,278 390,313" fill="#6B8E6B" transform="rotate(-3 375 295)"/>
    <polygon points="370,313 390,288 415,313" fill="#8FBC8F" transform="rotate(-3 375 295)"/>
    <circle cx="405" cy="273" r="7" fill="#FFD700" transform="rotate(-3 375 295)"/>

    <!-- Top photo on stack -->
    <rect x="320" y="248" width="100" height="78" rx="3" fill="white" stroke="#CCCCCC" stroke-width="2" transform="rotate(4 370 287)"/>
    <rect x="328" y="255" width="84" height="55" rx="1" fill="#E6E6FA" transform="rotate(4 370 287)"/>
    <ellipse cx="370" cy="300" rx="30" ry="8" fill="#DEB887" transform="rotate(4 370 287)"/>
    <polygon points="345,305 360,270 375,305" fill="#5F9F5F" transform="rotate(4 370 287)"/>
    <circle cx="395" cy="265" r="8" fill="#FFA500" transform="rotate(4 370 287)"/>

    <!-- Body -->
    <ellipse cx="200" cy="295" rx="90" ry="70" fill="#F4A7B9"/>
    <ellipse cx="200" cy="295" rx="80" ry="60" fill="#F8C4D0"/>

    <!-- Left leg -->
    <ellipse cx="160" cy="355" rx="20" ry="25" fill="#F4A7B9"/>
    <ellipse cx="160" cy="370" rx="18" ry="10" fill="#E8899E"/>

    <!-- Right leg -->
    <ellipse cx="240" cy="355" rx="20" ry="25" fill="#F4A7B9"/>
    <ellipse cx="240" cy="370" rx="18" ry="10" fill="#E8899E"/>

    <!-- Head -->
    <circle cx="200" cy="180" r="80" fill="#F4A7B9"/>
    <circle cx="200" cy="185" r="72" fill="#F8C4D0"/>

    <!-- Left ear -->
    <ellipse cx="140" cy="115" rx="28" ry="38" fill="#F4A7B9" transform="rotate(-20 140 115)"/>
    <ellipse cx="140" cy="115" rx="18" ry="26" fill="#E8899E" transform="rotate(-20 140 115)"/>

    <!-- Right ear -->
    <ellipse cx="260" cy="115" rx="28" ry="38" fill="#F4A7B9" transform="rotate(20 260 115)"/>
    <ellipse cx="260" cy="115" rx="18" ry="26" fill="#E8899E" transform="rotate(20 260 115)"/>

    <!-- Eyes -->
    <ellipse cx="172" cy="170" rx="14" ry="16" fill="white"/>
    <ellipse cx="228" cy="170" rx="14" ry="16" fill="white"/>
    <circle cx="175" cy="172" r="8" fill="#3D2C2C"/>
    <circle cx="231" cy="172" r="8" fill="#3D2C2C"/>
    <!-- Eye shine -->
    <circle cx="178" cy="168" r="3" fill="white"/>
    <circle cx="234" cy="168" r="3" fill="white"/>

    <!-- Snout -->
    <ellipse cx="200" cy="205" rx="30" ry="22" fill="#E8899E"/>
    <ellipse cx="200" cy="203" rx="28" ry="19" fill="#F0A0B2"/>
    <!-- Nostrils -->
    <ellipse cx="190" cy="205" rx="5" ry="6" fill="#D4758A"/>
    <ellipse cx="210" cy="205" rx="5" ry="6" fill="#D4758A"/>

    <!-- Smile -->
    <path d="M 180 220 Q 200 235 220 220" stroke="#D4758A" stroke-width="2.5" fill="none" stroke-linecap="round"/>

    <!-- Blush cheeks -->
    <ellipse cx="148" cy="200" rx="15" ry="10" fill="#F0A0B2" opacity="0.5"/>
    <ellipse cx="252" cy="200" rx="15" ry="10" fill="#F0A0B2" opacity="0.5"/>

    <!-- Left arm holding photo -->
    <path d="M 125 265 Q 95 255 80 235 Q 75 225 90 218" stroke="#F4A7B9" stroke-width="18" fill="none" stroke-linecap="round"/>
    <circle cx="85" cy="220" r="10" fill="#F4A7B9"/>

    <!-- Right arm resting near stack -->
    <path d="M 275 265 Q 300 260 315 250 Q 325 245 320 255" stroke="#F4A7B9" stroke-width="18" fill="none" stroke-linecap="round"/>
    <circle cx="318" cy="250" r="10" fill="#F4A7B9"/>

    <!-- Photo being held up by left arm -->
    <g transform="rotate(-10 120 200)">
      <rect x="55" y="175" width="105" height="82" rx="3" fill="white" stroke="#CCCCCC" stroke-width="2"/>
      <rect x="63" y="182" width="89" height="58" rx="1" fill="#87CEEB"/>
      <!-- Landscape scene in held photo -->
      <polygon points="70,237 95,198 120,237" fill="#5B8C5A"/>
      <polygon points="100,237 120,210 148,237" fill="#7AB87A"/>
      <!-- Sun -->
      <circle cx="135" cy="195" r="10" fill="#FFD700"/>
      <!-- Clouds -->
      <ellipse cx="85" cy="192" rx="12" ry="6" fill="white" opacity="0.8"/>
      <ellipse cx="110" cy="188" rx="10" ry="5" fill="white" opacity="0.7"/>
    </g>

    <!-- Curly tail -->
    <path d="M 280 310 Q 310 300 305 320 Q 300 340 320 330 Q 340 320 330 340" stroke="#F4A7B9" stroke-width="6" fill="none" stroke-linecap="round"/>

    <!-- Sparkles -->
    <g fill="#FFD700" opacity="0.7">
      <polygon points="60,140 63,148 71,148 65,153 67,161 60,156 53,161 55,153 49,148 57,148"/>
      <polygon points="310,130 313,138 321,138 315,143 317,151 310,146 303,151 305,143 299,138 307,138"/>
      <polygon points="440,220 442,225 447,225 443,228 444,233 440,230 436,233 437,228 433,225 438,225"/>
    </g>
  </g>

  <!-- Handwritten Script Text -->
  <g transform="translate(490, 140) scale(2.2)">
    <!-- p - flowing script -->
    <path d="M 5 25 Q 5 70 8 80 M 5 25 Q 10 5 25 5 Q 42 5 40 22 Q 38 40 20 42 Q 8 42 5 35" stroke="#3D2C2C" stroke-width="5" fill="none" stroke-linecap="round" stroke-linejoin="round"/>
    <!-- i -->
    <path d="M 48 18 Q 50 42 52 45" stroke="#3D2C2C" stroke-width="5" fill="none" stroke-linecap="round"/>
    <circle cx="50" cy="5" r="4" fill="#E8899E"/>
    <!-- q - flowing script -->
    <path d="M 96 22 Q 96 5 83 5 Q 73 5 73 22 Q 73 42 86 42 Q 96 42 96 30 M 96 25 Q 98 70 100 80" stroke="#3D2C2C" stroke-width="5" fill="none" stroke-linecap="round" stroke-linejoin="round"/>
    <!-- l - tall loop -->
    <path d="M 118 -5 Q 111 -5 111 10 Q 111 30 118 45" stroke="#3D2C2C" stroke-width="5" fill="none" stroke-linecap="round"/>
    <!-- e - cursive -->
    <path d="M 128 28 Q 148 28 148 18 Q 148 5 135 5 Q 125 5 125 22 Q 125 42 138 45 Q 148 45 151 38" stroke="#3D2C2C" stroke-width="5" fill="none" stroke-linecap="round" stroke-linejoin="round"/>
    <!-- y - cursive with tail -->
    <path d="M 160 10 Q 165 30 170 40 M 185 10 Q 177 35 170 55 Q 165 68 155 65" stroke="#3D2C2C" stroke-width="5" fill="none" stroke-linecap="round" stroke-linejoin="round"/>

    <!-- Decorative swash under text -->
    <path d="M 0 55 Q 85 68 185 50" stroke="#F4A7B9" stroke-width="3" fill="none" stroke-linecap="round" opacity="0.6"/>
  </g>
</svg>
